<svg data-bx-workspace="master" xmlns="http://www.w3.org/2000/svg" xmlns:bx="https://boxy-svg.com" viewBox="0 0 500 500"><defs></defs><rect style="fill: rgb(41, 40, 65);" x="68.697" y="63.413" width="328.256" height="328.256" rx="40" ry="40"></rect><path style="fill: rgb(218, 231, 255);" d="M 116.7 90.768 H 212.878 A 10 10 0 0 1 222.878 100.768 V 211.946 A 10 10 0 0 1 212.878 221.946 H 101.7 A 10 10 0 0 1 91.7 211.946 V 115.768 A 25 25 0 0 1 116.7 90.768 Z" data-bx-shape="rect 91.7 90.768 131.178 131.178 25 10 10 10 1@897df6da"></path><path style="fill: rgb(237, 152, 141);" d="M 260.623 161.952 H 356.801 A 10 10 0 0 1 366.801 171.952 V 283.13 A 10 10 0 0 1 356.801 293.13 H 245.623 A 10 10 0 0 1 235.623 283.13 V 186.952 A 25 25 0 0 1 260.623 161.952 Z" data-bx-shape="rect 235.623 161.952 131.178 131.178 25 10 10 10 1@ae395e6a" transform="matrix(0, 1, -1, 0, 534.348328, -144.544434)"></path><path style="fill: rgb(87, 86, 127);" d="M -346.153 -369.599 H -249.975 A 10 10 0 0 1 -239.975 -359.599 V -248.421 A 10 10 0 0 1 -249.975 -238.421 H -361.153 A 10 10 0 0 1 -371.153 -248.421 V -344.599 A 25 25 0 0 1 -346.153 -369.599 Z" data-bx-shape="rect -371.153 -369.599 131.178 131.178 25 10 10 10 1@f3f4ce05" transform="matrix(-1, 0, 0, -1, 0, 0)"></path><path style="fill: rgb(140, 111, 229);" d="M -162.753 -371.464 H -66.575 A 10 10 0 0 1 -56.575 -361.464 V -250.286 A 10 10 0 0 1 -66.575 -240.286 H -177.753 A 10 10 0 0 1 -187.753 -250.286 V -346.464 A 25 25 0 0 1 -162.753 -371.464 Z" data-bx-shape="rect -187.753 -371.464 131.178 131.178 25 10 10 10 1@2fb2802a" transform="matrix(0, -1, 1, 0, 462.854095, 181.224243)"></path></svg>

