<?xml version="1.0" encoding="UTF-8" standalone="no"?>
<svg
   xmlns:dc="http://purl.org/dc/elements/1.1/"
   xmlns:cc="http://creativecommons.org/ns#"
   xmlns:rdf="http://www.w3.org/1999/02/22-rdf-syntax-ns#"
   xmlns:svg="http://www.w3.org/2000/svg"
   xmlns="http://www.w3.org/2000/svg"
   xmlns:sodipodi="http://sodipodi.sourceforge.net/DTD/sodipodi-0.dtd"
   xmlns:inkscape="http://www.inkscape.org/namespaces/inkscape"
   data-bx-workspace="master"
   viewBox="0 0 500 500"
   version="1.1"
   id="svg14"
   sodipodi:docname="battleshipJS-Singleplayer-Icon.svg"
   inkscape:version="1.0.1 (3bc2e813f5, 2020-09-07)">
  <metadata
     id="metadata18">
    <rdf:RDF>
      <cc:Work
         rdf:about="">
        <dc:format>image/svg+xml</dc:format>
        <dc:type
           rdf:resource="http://purl.org/dc/dcmitype/StillImage" />
      </cc:Work>
    </rdf:RDF>
  </metadata>
  <sodipodi:namedview
     pagecolor="#ffffff"
     bordercolor="#666666"
     borderopacity="1"
     objecttolerance="10"
     gridtolerance="10"
     guidetolerance="10"
     inkscape:pageopacity="0"
     inkscape:pageshadow="2"
     inkscape:window-width="1920"
     inkscape:window-height="1001"
     id="namedview16"
     showgrid="false"
     inkscape:zoom="1.66"
     inkscape:cx="250"
     inkscape:cy="250"
     inkscape:window-x="-9"
     inkscape:window-y="-9"
     inkscape:window-maximized="1"
     inkscape:current-layer="svg14" />
  <defs
     id="defs2" />
  <rect
     style="fill: rgb(237, 152, 141);"
     x="68.697"
     y="63.413"
     width="328.256"
     height="328.256"
     rx="40"
     ry="40"
     id="rect4"
     inkscape:export-xdpi="9.3585491"
     inkscape:export-ydpi="9.3585491" />
  <path
     style="fill: rgb(218, 231, 255);"
     d="M 116.7 90.768 H 212.878 A 10 10 0 0 1 222.878 100.768 V 211.946 A 10 10 0 0 1 212.878 221.946 H 101.7 A 10 10 0 0 1 91.7 211.946 V 115.768 A 25 25 0 0 1 116.7 90.768 Z"
     data-bx-shape="rect 91.7 90.768 131.178 131.178 25 10 10 10 1@897df6da"
     id="path6"
     inkscape:export-xdpi="9.3585491"
     inkscape:export-ydpi="9.3585491" />
  <path
     style="fill: rgb(41, 40, 65);"
     d="M 260.623 161.952 H 356.801 A 10 10 0 0 1 366.801 171.952 V 283.13 A 10 10 0 0 1 356.801 293.13 H 245.623 A 10 10 0 0 1 235.623 283.13 V 186.952 A 25 25 0 0 1 260.623 161.952 Z"
     data-bx-shape="rect 235.623 161.952 131.178 131.178 25 10 10 10 1@ae395e6a"
     transform="matrix(0, 1, -1, 0, 534.348328, -144.544434)"
     id="path8"
     inkscape:export-xdpi="9.3585491"
     inkscape:export-ydpi="9.3585491" />
  <path
     style="fill: rgb(87, 86, 127);"
     d="M -346.153 -369.599 H -249.975 A 10 10 0 0 1 -239.975 -359.599 V -248.421 A 10 10 0 0 1 -249.975 -238.421 H -361.153 A 10 10 0 0 1 -371.153 -248.421 V -344.599 A 25 25 0 0 1 -346.153 -369.599 Z"
     data-bx-shape="rect -371.153 -369.599 131.178 131.178 25 10 10 10 1@f3f4ce05"
     transform="matrix(-1, 0, 0, -1, 0, 0)"
     id="path10"
     inkscape:export-xdpi="9.3585491"
     inkscape:export-ydpi="9.3585491" />
  <path
     style="fill: rgb(140, 111, 229);"
     d="M -162.753 -371.464 H -66.575 A 10 10 0 0 1 -56.575 -361.464 V -250.286 A 10 10 0 0 1 -66.575 -240.286 H -177.753 A 10 10 0 0 1 -187.753 -250.286 V -346.464 A 25 25 0 0 1 -162.753 -371.464 Z"
     data-bx-shape="rect -187.753 -371.464 131.178 131.178 25 10 10 10 1@2fb2802a"
     transform="matrix(0, -1, 1, 0, 462.854095, 181.224243)"
     id="path12"
     inkscape:export-xdpi="9.3585491"
     inkscape:export-ydpi="9.3585491" />
</svg>
