<svg version="1" xmlns="http://www.w3.org/2000/svg" width="933.333" height="933.333" viewBox="0 0 700.000000 700.000000"><path d="M74.1 1.1c-8.4 1.1-19 4.3-26.6 8.1C25 20.6 9.4 40 2.8 65L.5 73.5v553l2.3 8.5c8.3 31.3 30.9 53.9 62.2 62.2l8.5 2.3h553l8.5-2.3c31.3-8.3 53.9-30.9 62.2-62.2l2.3-8.5v-553l-2.3-8.5c-8.2-31.1-30.3-53.3-61.7-62.2l-8-2.3L354 .4C203.6.3 77.6.6 74.1 1.1zm241.9 59c6 2.7 7.9 4.5 10.6 10.4l2.4 5v122.8c0 134.5.3 126.5-5.8 133.1-1.5 1.6-4.5 3.7-6.7 4.7-3.8 1.8-9.4 1.9-127.8 1.9-119.9 0-123.9-.1-127.5-1.9-4.8-2.5-8.7-6.6-10.6-11.3-1.4-3.3-1.6-16.4-1.6-112.1 0-118.9-.3-113.3 6.1-125.9 6.5-12.9 22.4-25 36.4-27.6 2.9-.6 49.5-1 112.5-1.1 106-.1 107.6 0 112 2zm291.3.5c14.6 3.8 28.3 14.6 34.5 27.4 6.4 13 6.3 10 6 128.3-.3 118.1.2 109.5-6.4 116.1-6.6 6.6 3.7 6.1-131.4 6.4-89.2.2-123.6 0-126.6-.9-5.5-1.5-10.7-5.9-13.3-11.2-2.1-4.3-2.1-4.6-2.1-127.5 0-135-.3-127 5.8-133.6 1.5-1.6 4.5-3.7 6.7-4.7 3.8-1.8 9-1.9 112.4-1.9 95.3 0 109 .2 114.4 1.6zm-292.5 313c4.9 2 9 6 11.3 10.9 1.8 3.8 1.9 9.4 1.9 126.6 0 90-.3 123.5-1.2 126-1.8 5.3-4.5 8.7-9.6 11.6l-4.7 2.8h-219l-7-2.2C69.6 644 56 630.4 50.7 613.5l-2.2-7v-219l2.8-4.7c2.9-4.9 6.3-7.8 11.2-9.6 2.1-.7 41.8-1.1 125.8-1.1 108.8-.1 123.2.1 126.5 1.5zm318.1 2.3c5.8 3 9.8 8.2 11.1 14.4.7 3.8 1 36.1.8 111.8-.3 99.9-.4 106.7-2.2 111.9-6.1 18.6-18.8 31-37.1 36.7-5.7 1.7-12 1.8-115 1.8-104.5 0-109.1-.1-112.5-1.9-4.9-2.6-7.9-5.5-10.1-9.8-1.8-3.6-1.9-7.8-1.9-127.8s.1-124.2 1.9-127.8c2.2-4.2 5.2-7.2 9.6-9.5 2.7-1.5 15.9-1.6 127.3-1.7 121.1 0 124.4 0 128.1 1.9z"/></svg>